<svg height="512" viewBox="0 0 128 128" width="512" xmlns="http://www.w3.org/2000/svg"><g><path d="m97.808 4.75h-67.616a7.759 7.759 0 0 0 -7.75 7.75v103a7.759 7.759 0 0 0 7.75 7.75h67.616a7.759 7.759 0 0 0 7.75-7.75v-103a7.759 7.759 0 0 0 -7.75-7.75zm4.25 110.75a4.255 4.255 0 0 1 -4.25 4.25h-67.616a4.255 4.255 0 0 1 -4.25-4.25v-103a4.255 4.255 0 0 1 4.25-4.25h67.616a4.255 4.255 0 0 1 4.25 4.25z"/><path d="m87.417 113.75h-9a1.75 1.75 0 0 0 0 3.5h9a1.75 1.75 0 0 0 0-3.5z"/><path d="m94.808 13.75h-61.616a1.751 1.751 0 0 0 -1.75 1.75v12a1.751 1.751 0 0 0 1.75 1.75h61.616a1.751 1.751 0 0 0 1.75-1.75v-12a1.751 1.751 0 0 0 -1.75-1.75zm-1.75 12h-58.116v-8.5h58.116z"/><path d="m94.808 39.333h-9a1.75 1.75 0 0 0 -1.75 1.75v9a1.749 1.749 0 0 0 1.75 1.75h9a1.75 1.75 0 0 0 1.75-1.75v-9a1.751 1.751 0 0 0 -1.75-1.75zm-1.75 9h-5.5v-5.5h5.5z"/><path d="m68.27 51.833h9a1.75 1.75 0 0 0 1.75-1.75v-9a1.751 1.751 0 0 0 -1.75-1.75h-9a1.75 1.75 0 0 0 -1.75 1.75v9a1.749 1.749 0 0 0 1.75 1.75zm1.75-9h5.5v5.5h-5.5z"/><path d="m59.73 39.333h-9a1.751 1.751 0 0 0 -1.75 1.75v9a1.75 1.75 0 0 0 1.75 1.75h9a1.749 1.749 0 0 0 1.75-1.75v-9a1.75 1.75 0 0 0 -1.75-1.75zm-1.75 9h-5.5v-5.5h5.5z"/><path d="m33.192 51.833h9a1.749 1.749 0 0 0 1.75-1.75v-9a1.75 1.75 0 0 0 -1.75-1.75h-9a1.751 1.751 0 0 0 -1.75 1.75v9a1.75 1.75 0 0 0 1.75 1.75zm1.75-9h5.5v5.5h-5.5z"/><path d="m94.808 57.75h-9a1.75 1.75 0 0 0 -1.75 1.75v9a1.75 1.75 0 0 0 1.75 1.75h9a1.751 1.751 0 0 0 1.75-1.75v-9a1.751 1.751 0 0 0 -1.75-1.75zm-1.75 9h-5.5v-5.5h5.5z"/><path d="m66.52 68.5a1.75 1.75 0 0 0 1.75 1.75h9a1.751 1.751 0 0 0 1.75-1.75v-9a1.751 1.751 0 0 0 -1.75-1.75h-9a1.75 1.75 0 0 0 -1.75 1.75zm3.5-7.25h5.5v5.5h-5.5z"/><path d="m59.73 57.75h-9a1.751 1.751 0 0 0 -1.75 1.75v9a1.751 1.751 0 0 0 1.75 1.75h9a1.75 1.75 0 0 0 1.75-1.75v-9a1.75 1.75 0 0 0 -1.75-1.75zm-1.75 9h-5.5v-5.5h5.5z"/><path d="m33.192 70.25h9a1.75 1.75 0 0 0 1.75-1.75v-9a1.75 1.75 0 0 0 -1.75-1.75h-9a1.751 1.751 0 0 0 -1.75 1.75v9a1.751 1.751 0 0 0 1.75 1.75zm1.75-9h5.5v5.5h-5.5z"/><path d="m94.808 76.167h-9a1.749 1.749 0 0 0 -1.75 1.75v9a1.75 1.75 0 0 0 1.75 1.75h9a1.751 1.751 0 0 0 1.75-1.75v-9a1.75 1.75 0 0 0 -1.75-1.75zm-1.75 9h-5.5v-5.5h5.5z"/><path d="m66.52 86.917a1.75 1.75 0 0 0 1.75 1.75h9a1.751 1.751 0 0 0 1.75-1.75v-9a1.75 1.75 0 0 0 -1.75-1.75h-9a1.749 1.749 0 0 0 -1.75 1.75zm3.5-7.25h5.5v5.5h-5.5z"/><path d="m59.73 76.167h-9a1.75 1.75 0 0 0 -1.75 1.75v9a1.751 1.751 0 0 0 1.75 1.75h9a1.75 1.75 0 0 0 1.75-1.75v-9a1.749 1.749 0 0 0 -1.75-1.75zm-1.75 9h-5.5v-5.5h5.5z"/><path d="m33.192 88.667h9a1.75 1.75 0 0 0 1.75-1.75v-9a1.749 1.749 0 0 0 -1.75-1.75h-9a1.75 1.75 0 0 0 -1.75 1.75v9a1.751 1.751 0 0 0 1.75 1.75zm1.75-9h5.5v5.5h-5.5z"/><path d="m94.808 94.583h-9a1.75 1.75 0 0 0 -1.75 1.75v9a1.749 1.749 0 0 0 1.75 1.75h9a1.75 1.75 0 0 0 1.75-1.75v-9a1.751 1.751 0 0 0 -1.75-1.75zm-1.75 9h-5.5v-5.5h5.5z"/><path d="m79.02 105.333v-9a1.751 1.751 0 0 0 -1.75-1.75h-9a1.75 1.75 0 0 0 -1.75 1.75v9a1.749 1.749 0 0 0 1.75 1.75h9a1.75 1.75 0 0 0 1.75-1.75zm-3.5-1.75h-5.5v-5.5h5.5z"/><path d="m59.73 94.583h-26.538a1.751 1.751 0 0 0 -1.75 1.75v9a1.75 1.75 0 0 0 1.75 1.75h26.538a1.749 1.749 0 0 0 1.75-1.75v-9a1.75 1.75 0 0 0 -1.75-1.75zm-1.75 9h-23.038v-5.5h23.038z"/></g></svg>