<?xml version="1.0" encoding="utf-8"?>
<!-- Generator: Adobe Illustrator 19.2.1, SVG Export Plug-In . SVG Version: 6.00 Build 0)  -->
<svg version="1.1" id="Layer_1" xmlns="http://www.w3.org/2000/svg" xmlns:xlink="http://www.w3.org/1999/xlink" x="0px" y="0px"
	 viewBox="0 0 292 72" style="enable-background:new 0 0 292 72;" xml:space="preserve">
<style type="text/css">
	.st0{fill:#003DA6;}
	.st1{fill:#FFFFFF;}
	.st2{fill:#ED1C2E;}
	.st3{fill-rule:evenodd;clip-rule:evenodd;fill:#003DA6;}
</style>
<g>
	<g>
		<g>
			<path class="st0" d="M135.8,12.1c0,2.5-1.4,2.9-3.6,2.9h-1.6V9.4h2.1C134.7,9.4,135.8,10,135.8,12.1z M137.5,12.1
				c0-2.9-1.8-4.2-4.4-4.2H129v14.7h1.6v-6.2h2.1C135.5,16.4,137.5,15.5,137.5,12.1z"/>
			<path class="st0" d="M146,17.3c0,2.6-0.5,4.3-2.3,4.3c-1.8,0-2.3-1.7-2.3-4.3c0-3.3,0.6-4.6,2.3-4.6C145.3,12.8,146,14,146,17.3z
				 M147.6,17.2c0-3.7-1.2-5.7-3.9-5.7c-2.7,0-3.9,2.1-3.9,5.7c0,4.5,1.6,5.8,3.9,5.8C146.1,23,147.6,21.7,147.6,17.2z"/>
			<path class="st0" d="M153.8,23c-3.3,0-3.8-2.8-3.8-5.6c0-2.9,0.7-5.9,3.8-5.9c2.2,0,3.3,1.7,3.3,3.7h-1.5c0-1.2-0.4-2.4-1.9-2.4
				c-1.9,0-2.1,2.3-2.1,4.6c0,1.8,0.1,4.3,2.1,4.3c1.7,0,1.8-1.5,1.9-2.8h1.5C157.1,20.9,156.2,23,153.8,23z"/>
			<path class="st0" d="M163,23c-3.3,0-3.8-2.8-3.8-5.6c0-2.9,0.7-5.9,3.8-5.9c2.2,0,3.3,1.7,3.3,3.7h-1.5c0-1.2-0.4-2.4-1.9-2.4
				c-1.9,0-2.2,2.3-2.2,4.6c0,1.8,0.1,4.3,2.1,4.3c1.7,0,1.8-1.5,1.9-2.8h1.5C166.3,20.9,165.5,23,163,23z"/>
			<path class="st0" d="M174.7,22.7v-8.3l0.2-1.4l-0.3,1.4l-3.6,8.3H169V11.7h1.6v8.3l-0.2,1.3l0.4-1.3l3.6-8.3h1.9v10.9H174.7z"/>
			<path class="st0" d="M183.1,10.6c-1.3,0-2.3-0.7-2.4-2.4h0.8c0.2,1,0.8,1.4,1.7,1.4c0.9,0,1.5-0.3,1.7-1.4h0.8
				C185.5,9.9,184.5,10.6,183.1,10.6z M185.2,22.7v-8.3l0.2-1.4l-0.3,1.4l-3.6,8.3h-1.9V11.7h1.6v8.3l-0.2,1.3l0.4-1.3l3.6-8.3h1.9
				v10.9H185.2z"/>
			<path class="st0" d="M193.2,23c-3.3,0-3.8-2.8-3.8-5.6c0-2.9,0.7-5.9,3.8-5.9c2.2,0,3.3,1.7,3.3,3.7h-1.5c0-1.2-0.4-2.4-1.9-2.4
				c-1.9,0-2.2,2.3-2.2,4.6c0,1.8,0.1,4.3,2.1,4.3c1.7,0,1.8-1.5,1.9-2.8h1.5C196.5,20.9,195.7,23,193.2,23z"/>
			<path class="st0" d="M204.6,22.7l-2.7-5.4l-1.2,1.6v3.9h-1.6V11.7h1.6v5.1l3.8-5.1h1.8L203,16l3.5,6.7H204.6z"/>
			<path class="st0" d="M214.1,22.7v-8.3l0.2-1.4l-0.4,1.4l-3.6,8.3h-1.9V11.7h1.6v8.3l-0.2,1.3l0.3-1.3l3.6-8.3h1.9v10.9H214.1z"/>
			<path class="st0" d="M222.5,10.6c-1.3,0-2.3-0.7-2.4-2.4h0.8c0.2,1,0.8,1.4,1.7,1.4c0.9,0,1.5-0.3,1.7-1.4h0.8
				C225,9.9,224,10.6,222.5,10.6z M224.6,22.7v-8.3l0.2-1.4l-0.3,1.4l-3.6,8.3h-1.9V11.7h1.6v8.3l-0.2,1.3l0.3-1.3l3.6-8.3h1.9v10.9
				H224.6z"/>
		</g>
		<g>
			<path class="st0" d="M133.4,41.9c-4.3,0-4.7-4.4-4.7-7.9c0-3.3,0.6-7.5,4.6-7.5c2.8,0,4.2,2.1,4.2,4.7h-1.6
				c0-1.8-0.6-3.2-2.6-3.2c-2.8,0-2.9,4-2.9,6c0,3,0.2,6.5,2.9,6.5c2.1,0,2.5-1.8,2.6-4.2h1.6C137.3,39.6,136.5,41.9,133.4,41.9z"/>
			<path class="st0" d="M146.3,36.2c0,2.6-0.5,4.3-2.3,4.3c-1.8,0-2.3-1.7-2.3-4.3c0-3.3,0.6-4.6,2.3-4.6
				C145.6,31.6,146.3,32.9,146.3,36.2z M147.9,36.1c0-3.7-1.2-5.7-3.9-5.7c-2.7,0-3.9,2.1-3.9,5.7c0,4.5,1.6,5.8,3.9,5.8
				C146.4,41.8,147.9,40.5,147.9,36.1z"/>
			<path class="st0" d="M160.6,36.2c0,2.6-0.5,4.3-2.3,4.3c-1.8,0-2.3-1.7-2.3-4.3c0-3.3,0.7-4.6,2.3-4.6
				C159.9,31.6,160.6,32.9,160.6,36.2z M162.2,35.7c0-3.3-1.2-5.4-3.9-5.4c-2.5,0-3.9,1.9-3.9,4.8h-1.9v-4.5h-1.6v10.9h1.6v-5.1h1.9
				c0,4.1,1.7,5.4,3.9,5.4C160.7,41.8,162.2,40.4,162.2,35.7z"/>
			<path class="st0" d="M171.3,38.6c0-1.8-1.2-2.6-2.2-2.8v0c1.1-0.3,1.9-1.2,1.9-2.7c0-1.6-1.4-2.7-3.2-2.7c-2,0-3.3,1.5-3.3,3.2
				h1.4c0.1-1.1,0.6-1.9,1.9-1.9c1.3,0,1.7,0.8,1.7,1.7c0,1.1-0.7,1.9-1.6,1.9H167v1.3h0.9c1.2,0,1.8,0.9,1.8,2c0,1.5-0.8,2-2,2
				c-1.2,0-1.9-0.6-2-2.4h-1.4c0.2,2.6,1.3,3.7,3.6,3.7C170,41.8,171.3,40.5,171.3,38.6z"/>
		</g>
		<g>
			<path class="st0" d="M135.5,55.3h-3.9l1.9-7.8h0L135.5,55.3z M138.8,61l-4.1-14.7h-2.2L128.3,61h1.8l1.1-4.2h4.6L137,61H138.8z"
				/>
			<path class="st0" d="M145.9,52.9c0,1.2-0.5,1.7-1.7,1.7h-1.6v-3.3h1.7C145.3,51.3,145.9,51.9,145.9,52.9z M147.7,58
				c0-1.5-0.8-2.4-2-2.7v0c1-0.3,1.7-1.2,1.7-2.6c0-1.6-1.3-2.6-2.9-2.6H141V61h4.1C146.4,61,147.7,59.9,147.7,58z M146.1,57.8
				c0,1.3-0.4,1.9-1.8,1.9h-1.8v-3.8h1.9C145.5,55.9,146.1,56.5,146.1,57.8z"/>
			<path class="st0" d="M153.6,51.4V61H152v-9.6h-2.9v-1.3h7.3v1.3H153.6z"/>
			<path class="st0" d="M164.2,55.7c0,2.6-0.4,4.3-2.3,4.3c-1.8,0-2.3-1.7-2.3-4.3c0-3.3,0.6-4.6,2.3-4.6
				C163.6,51.1,164.2,52.3,164.2,55.7z M165.9,55.5c0-3.7-1.2-5.7-3.9-5.7c-2.7,0-3.9,2.1-3.9,5.7c0,4.5,1.6,5.8,3.9,5.8
				C164.4,61.3,165.9,60,165.9,55.5z"/>
			<path class="st0" d="M172.1,61.3c-3.3,0-3.8-2.8-3.8-5.6c0-2.9,0.7-5.9,3.8-5.9c2.2,0,3.3,1.7,3.3,3.7h-1.5
				c0-1.2-0.4-2.4-1.9-2.4c-1.9,0-2.2,2.3-2.2,4.6c0,1.8,0.1,4.3,2.1,4.3c1.7,0,1.8-1.5,1.9-2.8h1.5
				C175.4,59.3,174.5,61.3,172.1,61.3z"/>
			<path class="st0" d="M181.2,51.4V61h-1.6v-9.6h-2.9v-1.3h7.3v1.3H181.2z"/>
			<path class="st0" d="M191.8,55.4c0,2.9-0.5,4.6-2.1,4.6c-2,0-2.1-2.4-2.1-4.5c0-1.9,0.2-4.4,2.1-4.4
				C191.7,51.1,191.8,53.9,191.8,55.4z M193.4,55.4c0-3.1-0.8-5.6-3.6-5.6c-0.8,0-1.8,0.5-2.3,1.5h0v-1.2h-1.5v14.6h1.6v-4.8
				c0.6,0.9,1.2,1.4,2.4,1.4C192.7,61.3,193.4,58.7,193.4,55.4z"/>
			<path class="st0" d="M202.5,61.1c-0.9,0-1.4-0.1-1.7-1.6h0c-0.4,1-1.4,1.8-2.4,1.8c-1.9,0-2.8-1-2.8-3c0-1.9,0.8-2.6,2.7-3.4
				c0.7-0.3,1.8-0.7,1.9-0.8c0.4-0.2,0.4-0.7,0.4-1.3c0-1.2-0.4-1.7-1.7-1.7c-1.2,0-1.6,0.7-1.6,1.9H196c0-2.3,1.1-3.2,3.2-3.2
				c2.2,0,3.1,1.3,3.1,2.8V59c0,0.5,0.2,0.9,0.6,0.9c0.1,0,0.3,0,0.3,0V61C203.1,61.1,202.8,61.1,202.5,61.1z M200.7,55
				c-1.6,0.9-3.5,1.1-3.5,3.2c0,1,0.4,1.7,1.5,1.7c0.8,0,1.3-0.3,1.6-0.6c0.3-0.4,0.4-0.7,0.4-2V55z"/>
			<path class="st0" d="M212.8,61l-3.3-5.6l3.2-5.3h-1.6l-2.4,4.2l-2.5-4.2h-1.6l3.2,5.3l-3.3,5.6h1.6l2.6-4.5l2.5,4.5H212.8z"/>
			<path class="st0" d="M220.7,55.7c0,2.6-0.4,4.3-2.3,4.3c-1.8,0-2.3-1.7-2.3-4.3c0-3.3,0.6-4.6,2.3-4.6
				C220,51.1,220.7,52.3,220.7,55.7z M222.3,55.5c0-3.7-1.2-5.7-3.9-5.7c-2.7,0-3.9,2.1-3.9,5.7c0,4.5,1.6,5.8,3.9,5.8
				C220.8,61.3,222.3,60,222.3,55.5z"/>
			<path class="st0" d="M230.1,52.9c0,1.2-0.5,1.7-1.7,1.7h-1.6v-3.3h1.7C229.6,51.3,230.1,51.9,230.1,52.9z M232,58
				c0-1.5-0.8-2.4-2-2.7v0c1-0.3,1.7-1.2,1.7-2.6c0-1.6-1.3-2.6-2.9-2.6h-3.6V61h4.1C230.7,61,232,59.9,232,58z M230.4,57.8
				c0,1.3-0.4,1.9-1.8,1.9h-1.8v-3.8h1.9C229.7,55.9,230.4,56.5,230.4,57.8z"/>
			<path class="st0" d="M246.2,64v-3h-11.4V50.1h1.6v9.6h3.6v-9.6h1.6v9.6h3.6v-9.6h1.6v9.6h1.1V64H246.2z"/>
			<path class="st0" d="M255.6,61v-8.3l0.2-1.4l-0.3,1.4l-3.6,8.3h-1.9V50.1h1.6v8.3l-0.2,1.3l0.3-1.3l3.6-8.3h1.9V61H255.6z"/>
			<path class="st0" d="M265.8,61l-2.7-5.4l-1.2,1.6V61h-1.6V50.1h1.6v5.1l3.8-5.1h1.8l-3.4,4.2l3.5,6.7H265.8z"/>
			<path class="st0" d="M275.4,55.7c0,2.6-0.4,4.3-2.3,4.3c-1.8,0-2.3-1.7-2.3-4.3c0-3.3,0.6-4.6,2.3-4.6
				C274.8,51.1,275.4,52.3,275.4,55.7z M277,55.5c0-3.7-1.2-5.7-3.9-5.7c-2.7,0-3.9,2.1-3.9,5.7c0,4.5,1.6,5.8,3.9,5.8
				C275.5,61.3,277,60,277,55.5z"/>
			<path class="st0" d="M284.9,52.9c0,1.2-0.5,1.7-1.7,1.7h-1.6v-3.3h1.7C284.3,51.3,284.9,51.9,284.9,52.9z M286.7,58
				c0-1.5-0.8-2.4-2-2.7v0c1-0.3,1.7-1.2,1.7-2.6c0-1.6-1.3-2.6-2.9-2.6H280V61h4.1C285.5,61,286.7,59.9,286.7,58z M285.1,57.8
				c0,1.3-0.4,1.9-1.8,1.9h-1.8v-3.8h1.9C284.5,55.9,285.1,56.5,285.1,57.8z"/>
		</g>
	</g>
	<g>
		<g>
			<path class="st0" d="M116.3,6.9l-0.1-0.1l-0.3-0.1c-2.5-0.2-4.6-0.2-6.9-0.1h0l-3.6,0.1c-24.4,0-68.5,3.3-88.7,25.1
				C8.8,40.4,5.3,51,6.2,63.4c0,0,0.1,0.5,0.1,0.5L66.8,64l0.4-0.7L67.1,63C64,56.3,61.5,46.1,67,35.6c6.7-12.9,23.6-22.1,49-26.8
				l0.3-0.1l0.1-0.3c0,0,0-1.1,0-1.1L116.3,6.9z"/>
			<path class="st1" d="M106.2,8.1c2.3-0.2,9.6-0.5,9.7-0.5c0-0.1,0-0.3,0-0.4c-3.8-0.4-6.6,0-10.5,0c-50.9,0-102,13.2-98.7,56.2
				c5.6,0,12.8,0,18.7,0C20.3,25.8,60,11.3,106.2,8.1z"/>
			<path class="st2" d="M115.9,7.8C115.9,7.8,115.9,7.8,115.9,7.8C99.3,9.5,37.1,18.1,46.4,63.4c0,0,20,0,20,0s0.3-0.2,0.3-0.3
				c-9.1-19.9-1.8-45.4,49.2-54.9C115.9,8.1,115.9,7.9,115.9,7.8z"/>
		</g>
		<g>
			<path class="st3" d="M93.2,57C90.8,58.3,88.1,59,85,59c-2.4,0-4.7-0.4-6.7-1.2c-2-0.8-3.5-1.9-4.5-3.4c-0.6-0.9-1-1.9-1-2.8
				c0-2.1,1.2-3.8,3.7-5.3c2.4-1.4,5.2-2.1,8.5-2.1c3.1,0,5.8,0.7,8.2,2V50c-1.1-1.2-2.2-2.1-3.3-2.7c-1.4-0.8-3.1-1.2-4.9-1.2
				c-2.3,0-4.3,0.5-5.8,1.6c-1.5,1.1-2.3,2.4-2.3,3.9c0,1.5,0.7,2.8,2.3,3.8c1.6,1.1,3.5,1.7,5.9,1.7c3,0,5.7-1.3,8.2-4V57z"/>
			<path class="st3" d="M112.1,44.1v0.8c-1.7-0.5-3.5-0.8-5.4-0.8c-3.3,0-6.1,0.7-8.5,2.1c-2.4,1.4-3.7,3.2-3.7,5.3
				c0,1,0.3,1.9,1,2.8c1,1.4,2.5,2.5,4.5,3.4c2,0.8,4.3,1.2,6.7,1.2c1.9,0,3.8-0.3,5.4-0.8v1.2h4V44.1H112.1z M106.7,57
				c-2.3,0-4.3-0.6-5.9-1.7c-1.5-1.1-2.3-2.3-2.3-3.8c0-1.5,0.8-2.8,2.3-3.9c1.6-1.1,3.5-1.6,5.8-1.6c1.8,0,3.4,0.4,4.9,1.2
				c0.2,0.1,0.4,0.2,0.6,0.3v7.7C110.4,56.5,108.6,57,106.7,57z"/>
			<path class="st3" d="M67.9,46.7c-2.4-1.4-5.2-2.1-8.5-2.1c-2,0-3.8,0.3-5.4,0.8v-0.8h-4v18.9h4v-4.8c1.7,0.5,3.5,0.8,5.4,0.8
				c2.4,0,4.7-0.4,6.7-1.2c2-0.8,3.5-1.9,4.5-3.4c0.6-0.9,1-1.9,1-2.8C71.6,49.9,70.3,48.2,67.9,46.7z M65.3,55.8
				c-1.6,1.1-3.5,1.7-5.9,1.7c-1.9,0-3.8-0.6-5.4-1.6v-7.7c0.2-0.1,0.4-0.2,0.6-0.3c1.4-0.8,3.1-1.2,4.9-1.2c2.3,0,4.3,0.5,5.8,1.6
				c1.5,1.1,2.3,2.4,2.3,3.9C67.5,53.5,66.8,54.8,65.3,55.8z"/>
		</g>
	</g>
</g>
</svg>
