<svg enable-background="new 0 0 511.999 511.999" height="512" viewBox="0 0 511.999 511.999" width="512" xmlns="http://www.w3.org/2000/svg"><g id="XMLID_1715_"><g id="XMLID_311_"><path id="XMLID_314_" d="m465.74 109.173v-52.997c0-4.044-2.437-7.691-6.173-9.239-3.737-1.549-8.039-.692-10.898 2.167l-18.899 18.899c-47.439-43.931-108.754-68.003-173.771-68.003-.009 0-.02 0-.028 0-68.37.007-132.646 26.636-180.991 74.98-43.247 43.247-69.612 100.605-74.24 161.509-4.495 59.15 11.666 118.079 45.52 166.338v52.996c0 4.044 2.437 7.691 6.173 9.239 3.736 1.549 8.038.693 10.898-2.167l18.899-18.899c47.438 43.932 108.753 68.005 173.77 68.004h.029c68.369-.007 132.646-26.636 180.991-74.98 43.246-43.246 69.611-100.604 74.24-161.507 4.495-59.152-11.666-118.081-45.52-166.34zm-376.618-20.051c91.995-91.995 241.699-92.012 333.714-.039 3.906 3.904 10.236 3.903 14.141-.001l8.763-8.763v55.858h-55.858l8.912-8.912c1.875-1.875 2.929-4.42 2.929-7.072 0-2.653-1.055-5.197-2.931-7.072-78.758-78.711-206.89-78.693-285.627.043-33.76 33.759-54.524 78.516-58.469 126.026-3.381 40.719 5.682 81.477 25.656 116.633h-24.092c-5.107 0-9.312 3.831-9.917 8.775-47.118-90.206-31.293-201.403 42.779-275.476zm333.754 333.754c-91.995 91.995-241.699 92.012-333.713.04-3.905-3.903-10.235-3.902-14.141.001l-8.763 8.763v-55.858h55.858l-8.912 8.911c-1.875 1.876-2.929 4.42-2.929 7.073s1.055 5.197 2.931 7.072c32.309 32.29 75.054 52.845 120.362 57.879 44.615 4.957 90.12-5.191 128.139-28.574 4.705-2.894 6.172-9.053 3.279-13.757-2.894-4.705-9.054-6.172-13.757-3.279-69.118 42.509-156.767 34.18-216.621-19.534l18.72-18.719c2.86-2.86 3.715-7.161 2.167-10.898s-5.194-6.173-9.239-6.173h-42.477c-47.316-71.9-37.783-167.208 23.526-228.517 68.567-68.568 178.712-70.877 250.079-6.918l-18.717 18.717c-2.86 2.86-3.715 7.161-2.167 10.897 1.548 3.737 5.194 6.173 9.239 6.173h42.479c38.683 58.812 39.984 134.804 2.928 195.055-2.893 4.705-1.425 10.863 3.279 13.757 1.634 1.005 3.442 1.483 5.229 1.483 3.358 0 6.639-1.692 8.527-4.763 20.555-33.421 30.838-71.936 29.737-111.378-.93-33.329-9.951-65.53-26.252-94.154h24.071c5.107 0 9.312-3.831 9.917-8.774 47.118 90.207 31.293 201.404-42.779 275.475z"/><path id="XMLID_316_" d="m391.769 381.759c-2.64 0-5.21 1.07-7.08 2.93-1.86 1.86-2.92 4.44-2.92 7.08 0 2.63 1.06 5.21 2.92 7.07 1.87 1.86 4.44 2.93 7.08 2.93 2.63 0 5.2-1.07 7.07-2.93 1.86-1.87 2.93-4.44 2.93-7.07 0-2.64-1.07-5.21-2.93-7.08-1.87-1.86-4.44-2.93-7.07-2.93z"/><path id="XMLID_333_" d="m318.166 228.802h-34.706v-77.261c0-4.421-2.904-8.318-7.141-9.583-4.238-1.264-8.802.404-11.224 4.103l-79.628 121.554c-2.013 3.073-2.179 7.002-.433 10.233 1.747 3.232 5.125 5.246 8.798 5.246h34.706v77.363c0 4.422 2.905 8.319 7.143 9.583.945.282 1.906.418 2.857.418 3.31 0 6.486-1.65 8.368-4.524l79.627-121.656c2.011-3.073 2.176-7.001.43-10.232-1.747-3.231-5.124-5.244-8.797-5.244zm-69.628 98.118v-53.825c0-5.523-4.477-10-10-10h-26.2l51.122-78.04v53.747c0 5.523 4.477 10 10 10h26.208z"/></g></g></svg>